<svg xmlns="http://www.w3.org/2000/svg" width="16" height="16.965" viewBox="0 0 16 16.965">
  <g id="Group_760" data-name="Group 760" transform="translate(0 0)">
    <path id="Path_955" data-name="Path 955" d="M362.754,52.085a4.974,4.974,0,1,0-4.974-4.974A4.974,4.974,0,0,0,362.754,52.085Zm-1.206-4.839a1.206,1.206,0,1,1-1.207,1.207A1.207,1.207,0,0,1,361.548,47.246Z" transform="translate(-357.78 -35.12)" fill="#4460f1"/>
    <path id="Path_956" data-name="Path 956" d="M355.057,59.1l3.967-3.994a2.123,2.123,0,0,0,.615-1.495v-2.7a1.352,1.352,0,0,0-1.347-1.357h-.533v1.966H355.64V53.48h-2V55.5L352,55.133l-.272.269Z" transform="translate(-343.639 -49.558)" fill="#b3c0ff"/>
  </g>
</svg>
