<svg xmlns="http://www.w3.org/2000/svg" width="16" height="12.348" viewBox="0 0 16 12.348">
  <g id="Group_763" data-name="Group 763" transform="translate(-351.728 -43.904)">
    <path id="Rectangle_464" data-name="Rectangle 464" d="M0,0H16a0,0,0,0,1,0,0V5.468a2,2,0,0,1-2,2H2a2,2,0,0,1-2-2V0A0,0,0,0,1,0,0Z" transform="translate(351.728 48.783)" fill="#4460f1"/>
    <path id="Rectangle_465" data-name="Rectangle 465" d="M1.252,0h13.5A1.252,1.252,0,0,1,16,1.252V2.5a0,0,0,0,1,0,0H0a0,0,0,0,1,0,0V1.252A1.252,1.252,0,0,1,1.252,0Z" transform="translate(351.728 43.904)" fill="#b3c0ff"/>
  </g>
</svg>
