<svg xmlns="http://www.w3.org/2000/svg" width="14.588" height="16.418" viewBox="0 0 14.588 16.418">
  <g id="Group_761" data-name="Group 761" transform="translate(-351.735 -41.137)">
    <path id="Path_957" data-name="Path 957" d="M359.535,58.94a2.047,2.047,0,0,0,2.049-2.045v0h-4.094A2.046,2.046,0,0,0,359.535,58.94Z" transform="translate(-0.506 -1.385)" fill="#b3c0ff"/>
    <path id="Path_958" data-name="Path 958" d="M366.043,51.955h0c-.628-.619-1.806-1.552-1.806-4.608a4.843,4.843,0,0,0-4.167-4.634v-.62a1.045,1.045,0,0,0-2.082,0h0v.623a4.842,4.842,0,0,0-4.166,4.634c0,3.055-1.178,3.987-1.808,4.605a.9.9,0,0,0-.278.649,1,1,0,0,0,1.043.956h12.5a1,1,0,0,0,1.045-.955h0A.9.9,0,0,0,366.043,51.955Z" fill="#4460f1"/>
  </g>
</svg>
